PathFileType	4	(X/Y/Z)	./resultDataOpenSim/trcMotMarkerGrf/sub09/qtm-12-03.trc
DataRate	CameraRate	NumFrames	NumMarkers	Units	OrigDataRate	OrigDataStartFrame	OrigNumFrames
250.000000	250.000000	12	24	m	250.000000	117	466
Frame#	Time	L.Toe.Tip			R.Toe.Tip			L.Ankle.Lat			R.Ankle.Lat			L.Ankle.Med			R.Ankle.Med			L.Heel			R.Heel			L.Knee.Lat			R.Knee.Lat			L.Knee.Med			R.Knee.Med			L.Thigh.Upper			R.Thigh.Upper			L.ASIS			R.ASIS			V.Sacral			L.Acromium			R.Acromium			C7			L.Elbow			R.Elbow			L.Wrist.Lat			R.Wrist.Lat
		X1	Y1	Z1	X2	Y2	Z2	X3	Y3	Z3	X4	Y4	Z4	X5	Y5	Z5	X6	Y6	Z6	X7	Y7	Z7	X8	Y8	Z8	X9	Y9	Z9	X10	Y10	Z10	X11	Y11	Z11	X12	Y12	Z12	X13	Y13	Z13	X14	Y14	Z14	X15	Y15	Z15	X16	Y16	Z16	X17	Y17	Z17	X18	Y18	Z18	X19	Y19	Z19	X20	Y20	Z20	X21	Y21	Z21	X22	Y22	Z22	X23	Y23	Z23	X24	Y24	Z24

117	0.464	-0.10445432	0.11059292	-0.062891388	-0.59334738	0.038688422	0.064185584	-0.25597866	0.091490613	-0.090995633	-0.74022336	0.056588819	0.096750692	-0.23644804	0.11831617	0.0036429697	-0.72858678	0.092387418	0.0052063312	-0.30414532	0.03215925	-0.037855048	-0.80924927	0.035539856	0.047011175	-0.34847511	0.50122503	-0.12603172	-0.60057508	0.49525202	0.15481557	-0.34768509	0.49652194	-0.00045816853	-0.62011075	0.48774754	0.025901775	-0.52700624	0.8848691	-0.16378399	-0.56276284	0.90107498	0.20818849	-0.45588199	0.97200508	-0.10045733	-0.45698945	0.98088518	0.1382981	-0.6263931	1.0312423	0.010308157	-0.45902025	1.4270787	-0.15193969	-0.46104224	1.4397721	0.1753821	-0.51774392	1.4851077	0.014988371	-0.65262019	1.1138574	-0.21057306	-0.59754442	1.1010104	0.27115513	-0.53622315	0.87481997	-0.24157546	-0.41347205	0.89260917	0.27820755
118	0.468	-0.086651275	0.11523116	-0.061810979	-0.59329657	0.038606949	0.064368612	-0.23769607	0.092275725	-0.09063554	-0.74022907	0.056587697	0.096612417	-0.21903997	0.11988263	0.0040148115	-0.72825844	0.092433601	0.0050934367	-0.2844318	0.031840076	-0.037703688	-0.80925052	0.035727211	0.046689421	-0.34135727	0.49912822	-0.12614499	-0.59625879	0.49504637	0.15504472	-0.34047494	0.49412562	-8.5423612e-05	-0.61764614	0.4872788	0.026235536	-0.51953474	0.88265516	-0.16370539	-0.55681496	0.90005084	0.20796611	-0.44856633	0.97008007	-0.10037453	-0.45032982	0.97950749	0.13842124	-0.62005387	1.0291764	0.0099648655	-0.45260575	1.4255786	-0.15223312	-0.45450253	1.4383536	0.17516209	-0.51149466	1.4836602	0.01479354	-0.64665771	1.1127194	-0.21077785	-0.59077537	1.0995397	0.27101642	-0.53104358	0.87333136	-0.24212582	-0.40655862	0.89115841	0.27777079
119	0.472	-0.069324796	0.11981104	-0.060764698	-0.59324173	0.038524768	0.064585297	-0.2197333	0.093333015	-0.090380732	-0.74011209	0.056601432	0.09642954	-0.20202747	0.12150499	0.0042565416	-0.72790719	0.092498419	0.0049675386	-0.26517133	0.031770436	-0.03772283	-0.80923905	0.035935306	0.046340526	-0.33411308	0.49701229	-0.12610516	-0.59275019	0.49492145	0.15558352	-0.33313204	0.49168252	0.00042253895	-0.61504279	0.48674788	0.026533071	-0.51207882	0.88033661	-0.16359603	-0.55086327	0.89895921	0.20771379	-0.44125996	0.96809326	-0.10029149	-0.44364525	0.97806106	0.13852874	-0.61366554	1.0271305	0.0095779382	-0.44619235	1.4240087	-0.15254761	-0.44796542	1.4368622	0.17493019	-0.50523464	1.4821057	0.014558247	-0.6406528	1.1114905	-0.21108392	-0.58400357	1.0979927	0.27086249	-0.52587029	0.87176338	-0.24270513	-0.39966736	0.88961298	0.27734974
120	0.476	-0.052488361	0.1243336	-0.059707226	-0.59319066	0.038435671	0.064805944	-0.20214524	0.094608297	-0.090210577	-0.73998009	0.056754195	0.096223367	-0.18543945	0.12312399	0.0043585266	-0.72753938	0.092588506	0.0048396195	-0.24640376	0.031895379	-0.037935955	-0.80921059	0.036175809	0.045977037	-0.32674885	0.49490659	-0.12594366	-0.58964294	0.49483031	0.15678496	-0.3257956	0.48924951	0.00096516041	-0.61226042	0.48618096	0.026842113	-0.50465006	0.8779134	-0.16346389	-0.54490517	0.89779901	0.20743928	-0.43398188	0.96605111	-0.100213	-0.43693931	0.97653973	0.13862299	-0.60726881	1.0250993	0.0091768744	-0.43977835	1.4223703	-0.15287453	-0.44143398	1.4352979	0.17469012	-0.49895883	1.4804483	0.014282348	-0.63460508	1.1101657	-0.21144589	-0.57721513	1.0963664	0.27069002	-0.52070807	0.87011874	-0.2433185	-0.39283533	0.88797309	0.27695372
121	0.48	-0.036162755	0.12875719	-0.05862172	-0.59314785	0.038359928	0.064976532	-0.18505803	0.096023201	-0.090063787	-0.74008137	0.057222341	0.096043438	-0.16933294	0.124722	0.0044234342	-0.72715871	0.092709386	0.0047180045	-0.22815072	0.032138472	-0.03828275	-0.80916735	0.036461038	0.045616429	-0.31926753	0.4928375	-0.12570799	-0.58687485	0.49462896	0.15872385	-0.3185664	0.48686232	0.0014737461	-0.60927033	0.48560815	0.027224652	-0.49725637	0.87539307	-0.16331364	-0.53893215	0.89657253	0.20715515	-0.42676766	0.9639577	-0.10014441	-0.43022139	0.97493871	0.13871036	-0.60091434	1.0230809	0.0087791035	-0.43336578	1.4206678	-0.15321086	-0.43492775	1.4336666	0.17444328	-0.49267063	1.4787109	0.013971026	-0.62850992	1.1087493	-0.21184408	-0.57040263	1.0946587	0.27049931	-0.51553258	0.86840131	-0.24394798	-0.38608721	0.88624644	0.27660019
122	0.484	-0.020374746	0.13299758	-0.05751335	-0.59311134	0.038319445	0.06506842	-0.16857323	0.097498193	-0.089874965	-0.74051302	0.058009635	0.095905749	-0.15378368	0.12630645	0.0045757753	-0.72676968	0.092861645	0.0046081302	-0.21046067	0.032434451	-0.038625431	-0.80911292	0.036799803	0.045269475	-0.31168064	0.49082851	-0.12543575	-0.58449936	0.49412309	0.16087129	-0.31144839	0.48451733	0.0019368716	-0.60609048	0.48505039	0.027695501	-0.48989794	0.87279438	-0.16314959	-0.53293628	0.89528343	0.20687791	-0.41963926	0.96181822	-0.10008947	-0.42349794	0.97326103	0.13879792	-0.59463909	1.0210707	0.0083868263	-0.42696417	1.418913	-0.15356559	-0.42846731	1.4319836	0.1741944	-0.48637905	1.4769091	0.013630085	-0.62236103	1.1072471	-0.21227627	-0.5635727	1.0928763	0.27029515	-0.51029311	0.86660294	-0.24455404	-0.37942055	0.88444646	0.27630257
123	0.488	-0.0051580673	0.13696762	-0.056407963	-0.59307432	0.038302749	0.06511782	-0.1527208	0.098952586	-0.089618428	-0.74092036	0.058751782	0.095748099	-0.13883636	0.12787282	0.0048375788	-0.72637785	0.093041413	0.0045120734	-0.19345331	0.032768905	-0.038797996	-0.80904532	0.037190329	0.044935471	-0.30401385	0.48890654	-0.12516849	-0.58230554	0.49327395	0.16246348	-0.30436137	0.48219457	0.0023649798	-0.60276714	0.48449923	0.02822108	-0.48256222	0.87014327	-0.16298012	-0.52691557	0.89393888	0.206618	-0.41256943	0.95964388	-0.1000442	-0.41677161	0.97151837	0.13888876	-0.58839518	1.0190414	0.0079896446	-0.42057735	1.4171164	-0.15394874	-0.42205488	1.4302683	0.17395314	-0.48009958	1.4750488	0.013274934	-0.61615795	1.1056589	-0.21274496	-0.55673714	1.0910325	0.27008502	-0.5049553	0.8647037	-0.24510718	-0.37280426	0.88257799	0.27605968
124	0.492	0.0094301868	0.14058072	-0.055386701	-0.59302946	0.038276386	0.065189207	-0.13754232	0.10028846	-0.0892923	-0.74082759	0.059028337	0.095515191	-0.12450883	0.12938199	0.0051550157	-0.72598185	0.09324602	0.0044296102	-0.17726	0.03315527	-0.038696222	-0.80895882	0.037621629	0.044606799	-0.29624738	0.48710481	-0.12494508	-0.57991476	0.49224439	0.16312301	-0.29721354	0.47990436	0.0027326079	-0.59931926	0.48391791	0.028769496	-0.47522966	0.86746226	-0.1628154	-0.52087122	0.89254496	0.2063791	-0.40550976	0.95744743	-0.099994207	-0.41005201	0.96972631	0.13898345	-0.58192957	1.0169257	0.0075682697	-0.41419054	1.4152699	-0.1543518	-0.41567117	1.4285286	0.17372177	-0.4738437	1.4731363	0.012928916	-0.60990895	1.1039837	-0.21324826	-0.54989985	1.0891378	0.26987434	-0.49952734	0.86269755	-0.24561008	-0.36620746	0.88063442	0.27585701
125	0.496	0.023309554	0.14373241	-0.054574332	-0.59297659	0.038224887	0.065310576	-0.12314186	0.10139335	-0.088888436	-0.74026699	0.058887338	0.095251038	-0.11080891	0.13077961	0.0054975378	-0.72557135	0.09347569	0.0043602587	-0.16193103	0.033568635	-0.038345208	-0.80885131	0.038086716	0.044278252	-0.28829646	0.48546838	-0.12477926	-0.57697094	0.49119763	0.16283061	-0.28993758	0.47769925	0.0029853962	-0.59572834	0.48327257	0.029333332	-0.46788228	0.86476611	-0.16265177	-0.51479651	0.891097	0.20616575	-0.39844641	0.95523237	-0.099924956	-0.40335691	0.96789531	0.13908656	-0.57475906	1.0146529	0.0071107508	-0.40778104	1.4133505	-0.1547557	-0.40929205	1.4267505	0.17349035	-0.46759651	1.4711761	0.012591397	-0.60362762	1.1022284	-0.21377598	-0.54305567	1.0871928	0.26966219	-0.49403193	0.86060661	-0.24608119	-0.35963236	0.87861066	0.27567838
126	0.5	0.036418728	0.14630839	-0.054048062	-0.59292675	0.038160917	0.065471561	-0.10962685	0.10216917	-0.088396661	-0.73968043	0.058728847	0.095034967	-0.097724299	0.13201749	0.0058748165	-0.7251331	0.093732823	0.0043014647	-0.14748097	0.033921099	-0.037808185	-0.80872529	0.03859511	0.043951292	-0.28007649	0.48404255	-0.12465743	-0.57333541	0.49019881	0.16170923	-0.28244676	0.47566176	0.00311998	-0.59198073	0.48253508	0.029879346	-0.46050363	0.86206795	-0.16246665	-0.50868062	0.88958228	0.20598394	-0.39139378	0.95298735	-0.099833714	-0.39669096	0.96602806	0.13920378	-0.56659634	1.0123026	0.0066561902	-0.40133951	1.4113497	-0.15515626	-0.40290703	1.4249115	0.1732468	-0.46129548	1.4691635	0.012209975	-0.59732922	1.1004058	-0.21430798	-0.53619857	1.0851931	0.26944271	-0.48848409	0.85846853	-0.24654138	-0.35309934	0.87651339	0.27551463
127	0.504	0.048748913	0.14821791	-0.053784563	-0.59289736	0.038109659	0.065659007	-0.097047125	0.10256035	-0.087820107	-0.73933227	0.058789913	0.094884014	-0.085246122	0.13303585	0.0062810948	-0.72465399	0.094026325	0.0042453257	-0.13397657	0.034093032	-0.037007633	-0.80858329	0.03917187	0.043623428	-0.27154653	0.4828309	-0.12455959	-0.56934342	0.48924881	0.16018998	-0.27462639	0.47388121	0.0032040654	-0.58810375	0.48168321	0.030364551	-0.45308555	0.85938464	-0.16223681	-0.5025276	0.88799551	0.20583779	-0.38436321	0.95069202	-0.099728807	-0.39003357	0.96412487	0.13933133	-0.55805406	1.0101976	0.00631964	-0.39487838	1.4092857	-0.15556671	-0.39651531	1.4230045	0.1729807	-0.45487176	1.4670907	0.011724566	-0.59102603	1.0985267	-0.21482271	-0.52932925	1.083141	0.26921115	-0.48289737	0.85632215	-0.24702133	-0.34661315	0.87435869	0.27536445
128	0.508	0.060316145	0.14941098	-0.053724986	-0.59289698	0.038089624	0.065862265	-0.085392756	0.10255692	-0.087182609	-0.73917624	0.059042716	0.094763107	-0.073408036	0.1337364	0.0066669408	-0.72412112	0.094373863	0.0041783057	-0.121483	0.033988197	-0.035798724	-0.80842421	0.039837447	0.043270236	-0.26269946	0.4817715	-0.12447412	-0.56549649	0.48828918	0.15890276	-0.26639114	0.47240918	0.0033050011	-0.58420455	0.48073965	0.030840633	-0.44565257	0.85672908	-0.16195558	-0.49635265	0.88634512	0.20572686	-0.37736411	0.9483328	-0.099626595	-0.38336237	0.9621878	0.13945799	-0.55041997	1.0086037	0.0062110197	-0.3884258	1.4071896	-0.15600172	-0.39011405	1.4210393	0.17268508	-0.44835068	1.4649602	0.011157147	-0.58470601	1.0965925	-0.21533231	-0.52245771	1.0810494	0.26896767	-0.47726813	0.85419006	-0.24754121	-0.34016208	0.87216177	0.27523101
